<?xml version="1.0"?>
<svg width="900" height="1024" xmlns="http://www.w3.org/2000/svg" xmlns:svg="http://www.w3.org/2000/svg" enable-background="new 0 0 1024 1024" version="1.1" xml:space="preserve">
 <g class="layer">
  <title>Layer 1</title>
  <path d="m220.97,931.64c-25.79,17.51 -31.49,16.98 -51.69,-3.81c-19.47,-20.09 -39.31,-39.77 -58.29,-60.28c-19.92,-21.49 -21.21,-32.88 -1.08,-54.03c23.59,-24.74 29.42,-46.79 16.42,-81.88c-14.01,-37.74 -36.94,-46.65 -71.15,-48.99c-34.49,-2.34 -39.49,-9.23 -39.52,-43.26c0,-30.3 -0.03,-60.56 0.03,-90.86c0.03,-27.15 8.25,-36.1 35.79,-39.04c10.94,-1.19 22.02,-3.81 32.85,-3.18c17.82,1.05 26.52,-7.48 31.77,-23.24c4.93,-14.89 10.55,-29.67 17.3,-43.82c6.4,-13.49 4.02,-24.22 -5.42,-35.09c-8.77,-10.06 -16.46,-21.11 -24.78,-31.63c-10.69,-13.52 -9.96,-27.5 0.73,-39.8c22.58,-25.9 46.72,-50.39 72.65,-72.97c12.3,-10.73 26.21,-8.49 38.06,1.64c12.83,10.94 24.74,22.96 37.18,34.42c7.27,6.67 14.68,8.6 23.13,1.26c59.34,-51.51 110.36,-108.75 129.58,-187.87c6.92,-28.52 8.74,-57.31 3.42,-86.42c-1.15,-6.22 -2.06,-12.69 3.08,-20.37c24.88,5.35 47.63,17.16 67.1,33.44c50.64,42.32 91.04,91.38 100.4,160.16c6.15,45.12 0.14,87.92 -18.91,129.13c-11.71,25.34 -22.19,50.74 -25.37,79.22c-4.58,41.13 6.05,77.2 30.93,109.21c26.8,34.42 47.81,71.08 56.12,114.76c11.78,61.86 -17.58,128.18 -71.12,156c-6.5,3.39 -12.97,8.14 -22.05,4.72c-2.52,-9.96 3.49,-18.84 4.86,-28.27c6.4,-44.59 -10.45,-79.61 -43.37,-108.3c-5.28,-4.58 -10.45,-9.47 -16.42,-12.97c-52.24,-30.47 -68.49,-79.22 -69.72,-135.87c-0.17,-8.42 2.55,-17.47 -3.01,-24.74c-4.54,-2.34 -7.69,-0.31 -10.1,2.06c-46.2,46.23 -79.54,99.49 -81.84,166.62c-2.8,80.31 61.54,158.27 142.3,175.88c92.01,20.09 191.02,-32.19 231.24,-125.49c38.93,-90.37 29.18,-178.12 -22.44,-261.54c-12.9,-20.79 -25.58,-41.69 -37.95,-62.8c-13.49,-22.99 -11.18,-42.08 8.32,-59.41c20.44,-18.17 41.73,-35.44 62.9,-52.73c11.88,-9.68 24.39,-10.27 36.41,0.21c26.45,22.99 49.94,48.85 72.44,75.55c9.26,10.97 8.6,23.66 -0.42,35.33c-9.58,12.44 -18.98,25.06 -28.83,37.32c-5.63,7.02 -7.02,13.84 -3.35,22.47c7.9,18.73 15.38,37.71 22.33,56.82c4.37,11.95 11.46,17.12 24.78,16.91c14.99,-0.21 30.16,1.54 45.08,3.84c20.41,3.18 26.77,11.22 26.87,31.63c0.14,35.54 0.17,71.05 0.14,106.59c-0.03,24.85 -7.62,32.43 -33.09,34.88c-16.15,1.54 -32.19,4.19 -48.33,5.98c-8,0.87 -12.09,5.03 -14.75,12.48c-4.44,12.62 -8.63,25.58 -15.2,37.08c-13.03,22.72 -11.18,42.56 7.48,60.88c0.8,0.8 1.4,1.85 2.1,2.8c30.72,40.05 29.98,47.91 -6.81,82.02c-17.09,15.83 -33.55,32.36 -50.92,47.84c-17.58,15.69 -25.97,15.94 -44.7,2.52c-11.85,-8.49 -23.38,-17.4 -34.53,-26.73c-8.07,-6.74 -14.96,-7.93 -25.09,-2.9c-19.22,9.58 -39.1,18.42 -59.55,24.85c-16.25,5.1 -24.53,14.01 -25.37,30.54c-0.31,5.8 -0.38,11.64 -0.91,17.4c-3.95,41.94 -16.04,45.43 -45.6,44.35c-29.67,-1.08 -59.37,-0.07 -89.08,-0.31c-22.26,-0.21 -35.3,-10.52 -34.77,-32.5c0.87,-37.36 -13.21,-60.28 -51.62,-66.57c-9.51,-1.57 -19.4,-5.77 -27.26,-11.32c-20.72,-14.71 -37.46,-8.67 -53.64,7.13c-4.58,4.47 -9.82,8.21 -15.76,13.07z" fill="#000000" id="svg_1" opacity="1"/>
 </g>
</svg>